<svg xmlns="http://www.w3.org/2000/svg" style="display: none;">

    <symbol id="icon-logo" viewBox="0 0 373.648 373.648">
        <path fill="currentColor" d="M365.359,162.68L211.398,33.587c-13.516-11.333-35.633-11.333-49.148,0L8.289,162.68
        c-13.516,11.333-10.144,20.605,7.495,20.605h36.883c0,0,3.739,0.166,3.739,3.539c0,34.021,0,136.081,0,136.081
        c0,14.169,11.487,25.656,25.656,25.656h209.523c14.171,0,25.656-11.486,25.656-25.656c0,0,0-102.252,0-136.335
        c0-3.118,3.387-3.284,3.387-3.284h37.235C375.503,183.285,378.876,174.013,365.359,162.68z M251.633,253.031
        c-10.377,15.783-55.056,53.315-64.741,53.315c-9.481-0.001-54.565-37.668-64.877-53.315c-5.161-7.832-8.824-16.478-8.219-27.84
        c1.079-20.113,17.524-36.724,37.664-36.724c20.706,0.001,32.765,22.092,35.365,22.093c2.976,0,15.548-22.093,35.365-22.092
        c20.141-0.001,36.585,16.608,37.662,36.722C260.46,236.553,256.809,245.163,251.633,253.031z"></path>
    </symbol>

    <symbol id="icon-cleaning" viewBox="0 0 257.121 257.121">
        <path fill="currentColor" d="M246.309,174.969c0-0.261-0.185-0.47-0.217-0.697c0.017-0.137,0.152-0.213,0.152-0.369
        c0-23.712-19.548-43.008-43.589-43.008c-22.525,0-40.879,17.02-43.115,38.7c-3.15-4.04-7.639-6.717-12.804-6.717h-10.704V12.914
        C136.032,5.206,131.051,0,123.646,0c-7.402,0-12.389,5.198-12.389,12.914V162.87h-10.722c-4.358,0-8.253,1.964-11.272,4.961v-45.4
        c0-1.739-1.423-3.162-3.166-3.162H27.156c-1.745,0-3.164,1.431-3.164,3.162v1.495H12.862v16.843h11.131v0.493
        c0,1.747,1.418,3.158,3.164,3.158h16.533v5.258c0,7.013-5.663,12.695-12.615,12.695c-1.745,0-3.162,1.427-3.162,3.158
        c0,1.747,1.417,3.157,3.162,3.157c10.441,0,18.951-8.539,18.951-19.011v-5.258h8.053v33.614H29.912
        c-10.538,0-19.1,8.628-19.1,19.176v56.745c0,1.747,1.421,3.153,3.162,3.153h72.129c0.103,0,0.156-0.1,0.252-0.116
        c0.096,0.017,0.148,0.116,0.241,0.116h74.094c1.747,0,3.165-1.435,3.165-3.153v-51.58l8.877,52.117
        c0.261,1.519,1.57,2.629,3.105,2.629h53.11c1.519,0,2.821-1.095,3.114-2.581l14.138-76.39c0.116-0.589-0.152-1.143-0.353-1.671
        C245.956,175.958,246.309,175.497,246.309,174.969z M123.629,6.336c2.262,0,6.055,0.84,6.055,6.578v115.881h-12.106V12.914
        C117.57,7.176,121.369,6.336,123.629,6.336z M117.57,135.11h12.115v27.752H117.57V135.11z M30.311,138.092v-12.501h52.615v37.78
        H64.399v-22.105c0-1.739-1.423-3.157-3.166-3.157L30.311,138.092L30.311,138.092z M29.896,184.362h31.33
        c1.743,0,3.166-1.419,3.166-3.154v-11.521h18.526v38.211l-0.301-0.124c-4.276,6.993-11.461,18.706-31.018,7.373
        c-18.077-10.499-29.066-7.35-34.49-4.047v-13.906C17.124,190.133,22.854,184.362,29.896,184.362z M17.124,250.765v-31.943
        c0.25-0.16,0.579-0.16,0.781-0.437c0.356-0.429,8.958-10.283,30.541,2.225c6.907,4.031,12.726,5.562,17.617,5.562
        c7.732,0,13.116-3.879,16.863-8.047v32.641H17.124z M157.516,250.765h-11.981v-32.396c0-1.739-1.419-3.142-3.166-3.142
        c-1.743,0-3.162,1.422-3.162,3.142v32.396h-12.415v-32.396c0-1.739-1.417-3.142-3.162-3.142c-1.744,0-3.162,1.422-3.162,3.142
        v32.396h-12.411v-32.396c0-1.739-1.423-3.142-3.168-3.142c-1.739,0-3.162,1.422-3.162,3.142v32.396H89.749v-68.928
        c0-6.984,4.825-12.639,10.778-12.639h10.714h24.78h10.699c5.951,0,10.796,5.686,10.796,12.639V250.765L157.516,250.765z
        M235.228,202.491l-0.06-0.023c-2.3,4.296-6.147,11.477-12.904,13.18c-4.721,1.158-10.471-0.437-17.111-4.837
        c-17.829-11.886-28.846-8.127-34.22-4.416l-3.927-23.015c9.353,4.04,24.901,5.391,35.649,5.391c10.961,0,26.895-1.411,36.163-5.635
        L235.228,202.491z M239.973,174.9c-0.625,2.14-12.647,7.514-37.317,7.514c-24.665,0-36.691-5.374-37.337-7.386
        c0.661-2.12,12.712-7.518,37.337-7.518C227.293,167.511,239.332,172.877,239.973,174.9z M202.655,137.227
        c18.138,0,33.226,12.852,36.528,29.779c-9.205-4.389-25.399-5.807-36.512-5.807c-11.133,0-27.347,1.442-36.556,5.807
        C169.422,150.062,184.514,137.227,202.655,137.227z M226.3,250.765h-47.809l-6.332-37.217c0.413-0.602,8.716-11.333,29.499,2.505
        c6.271,4.18,12.142,6.296,17.504,6.296c1.599,0,3.15-0.192,4.681-0.577c3.606-0.91,6.38-2.922,8.797-5.206L226.3,250.765z"></path>
    </symbol>

    <symbol id="icon-basket" viewBox="0 0 24 24">
        <path fill-rule="evenodd" clip-rule="evenodd" d="M12 4C10.4508 4 9.0799 5.00309 8.61115 6.47966L7.81104 9H8.49995H15.5H16.1889L15.3888 6.47966C14.92 5.00309 13.5491 4 12 4ZM18.2872 9L17.295 5.8745C16.5626 3.56734 14.4206 2 12 2C9.57933 2 7.43733 3.56734 6.7049 5.8745L5.71268 9H3.34789C2.00585 9 1.04464 10.2956 1.43384 11.58L2.55808 15.29L3.94596 19.87C4.32928 21.135 5.49529 22 6.81704 22H9.99995H14H17.1829C18.5046 22 19.6706 21.135 20.0539 19.87L21.4418 15.29L22.5661 11.58C22.9553 10.2956 21.9941 9 20.652 9H18.2872ZM6.4444 11H3.34789L4.25698 14H8.03615L7.62706 11H6.4444ZM9.64557 11L10.0547 14H13.9452L14.3543 11H9.64557ZM16.3728 11L15.9638 14H19.7429L20.652 11H17.5555H16.3728ZM19.1369 16H15.691L15.1456 20H17.1829C17.6235 20 18.0121 19.7117 18.1399 19.29L19.1369 16ZM13.1271 20L13.6725 16H10.3274L10.8728 20H13.1271ZM8.85434 20L8.30888 16H4.86304L5.86001 19.29C5.98778 19.7117 6.37646 20 6.81704 20H8.85434Z" fill="currentColor"></path>
    </symbol>

    <symbol id="icon-chat" viewBox="0 0 24 24">
        <path d="M8 12H8.01M12 12H12.01M16 12H16.01M21.0039 12C21.0039 16.9706 16.9745 21 12.0039 21C9.9675 21 3.00463 21 3.00463 21C3.00463 21 4.56382 17.2561 3.93982 16.0008C3.34076 14.7956 3.00391 13.4372 3.00391 12C3.00391 7.02944 7.03334 3 12.0039 3C16.9745 3 21.0039 7.02944 21.0039 12Z" stroke="currentColor" stroke-width="2" stroke-linecap="round" stroke-linejoin="round" fill="none"></path>
    </symbol>
    
    <symbol id="icon-whatsapp" viewBox="0 0 24 24">
        <path fill="currentColor" d="M2 22L3.41152 16.8691C2.54422 15.3639 2.08876 13.6568 2.09099 11.9196C2.08095 6.44549 6.52644 2 11.99 2C14.6417 2 17.1315 3.02806 19.0062 4.9034C19.9303 5.82266 20.6627 6.91616 21.1611 8.12054C21.6595 9.32492 21.9139 10.6162 21.9096 11.9196C21.9096 17.3832 17.4641 21.8287 12 21.8287C10.3368 21.8287 8.71374 21.4151 7.26204 20.6192L2 22ZM7.49424 18.8349L7.79675 19.0162C9.06649 19.7676 10.5146 20.1644 11.99 20.1654C16.5264 20.1654 20.2263 16.4662 20.2263 11.9291C20.2263 9.73176 19.3696 7.65554 17.8168 6.1034C17.0533 5.33553 16.1453 4.72636 15.1453 4.31101C14.1452 3.89565 13.0728 3.68232 11.99 3.68331C7.44343 3.6839 3.74476 7.38316 3.74476 11.9202C3.74476 13.4724 4.17843 14.995 5.00502 16.3055L5.19645 16.618L4.35982 19.662L7.49483 18.8354L7.49424 18.8349Z"></path>
        <path fill-rule="evenodd" clip-rule="evenodd" d="M9.52024 7.76662C9.33885 7.35303 9.13737 7.34298 8.96603 7.34298C8.81477 7.33294 8.65288 7.33294 8.48154 7.33294C8.32083 7.33294 8.04845 7.39321 7.81684 7.64549C7.58464 7.89719 6.95007 8.49217 6.95007 9.71167C6.95007 10.9318 7.83693 12.1111 7.95805 12.2724C8.07858 12.4337 9.67149 15.0139 12.192 16.0124C14.2883 16.839 14.712 16.6777 15.1657 16.6269C15.6189 16.5767 16.6275 16.0325 16.839 15.4476C17.0405 14.8733 17.0405 14.3693 16.9802 14.2682C16.9199 14.1678 16.748 14.1069 16.5064 13.9758C16.2541 13.8552 15.0446 13.2502 14.813 13.1693C14.5808 13.0889 14.4195 13.0487 14.2582 13.2904C14.0969 13.5427 13.623 14.0969 13.4724 14.2582C13.3306 14.4195 13.1799 14.4396 12.9377 14.3185C12.686 14.1979 11.8895 13.9356 10.9418 13.0889C10.2056 12.4331 9.71167 11.6171 9.56041 11.3755C9.41979 11.1232 9.54032 10.992 9.67149 10.8709C9.78257 10.7604 9.92378 10.579 10.0449 10.4378C10.1654 10.296 10.2056 10.1855 10.2966 10.0242C10.377 9.86292 10.3368 9.71167 10.2765 9.59114C10.2157 9.48006 9.74239 8.25997 9.52024 7.76603V7.76662Z" fill="currentColor"></path>
    </symbol>
    
    <symbol id="icon-telegram" viewBox="0 0 24 24">
        <path fill-rule="evenodd" clip-rule="evenodd" d="M21.997 12C21.997 17.5228 17.5198 22 11.997 22C6.47415 22 1.99699 17.5228 1.99699 12C1.99699 6.47715 6.47415 2 11.997 2C17.5198 2 21.997 6.47715 21.997 12ZM12.3553 9.38244C11.3827 9.787 9.43876 10.6243 6.52356 11.8944C6.05018 12.0827 5.8022 12.2669 5.77962 12.4469C5.74147 12.7513 6.12258 12.8711 6.64155 13.0343C6.71214 13.0565 6.78528 13.0795 6.86026 13.1038C7.37085 13.2698 8.05767 13.464 8.41472 13.4717C8.7386 13.4787 9.10009 13.3452 9.49918 13.0711C12.2229 11.2325 13.629 10.3032 13.7172 10.2831C13.7795 10.269 13.8658 10.2512 13.9243 10.3032C13.9828 10.3552 13.977 10.4536 13.9708 10.48C13.9331 10.641 12.4371 12.0318 11.6629 12.7515C11.4216 12.9759 11.2504 13.135 11.2154 13.1714C11.137 13.2528 11.0571 13.3298 10.9803 13.4038C10.506 13.8611 10.1502 14.204 11 14.764C11.4083 15.0331 11.7351 15.2556 12.0611 15.4776C12.4171 15.7201 12.7722 15.9619 13.2317 16.2631C13.3487 16.3398 13.4605 16.4195 13.5694 16.4971C13.9837 16.7925 14.3559 17.0579 14.8158 17.0155C15.083 16.991 15.359 16.7397 15.4992 15.9903C15.8305 14.2193 16.4817 10.382 16.6322 8.80081C16.6454 8.66228 16.6288 8.48498 16.6154 8.40715C16.6021 8.32932 16.5743 8.21842 16.4731 8.13633C16.3533 8.03911 16.1683 8.01861 16.0856 8.02C15.7095 8.0267 15.1324 8.22735 12.3553 9.38244Z" stroke="currentColor" stroke-linejoin="round" fill="none"></path>
    </symbol>
    
    <symbol id="icon-mail" viewBox="0 0 24 24">
        <path stroke="none" d="M0 0h24v24H0z" fill="none"></path>
        <path fill="currentColor" d="M22 7.535v9.465a3 3 0 0 1 -2.824 2.995l-.176 .005h-14a3 3 0 0 1 -2.995 -2.824l-.005 -.176v-9.465l9.445 6.297l.116 .066a1 1 0 0 0 .878 0l.116 -.066l9.445 -6.297z"></path>
        <path fill="currentColor" d="M19 4c1.08 0 2.027 .57 2.555 1.427l-9.555 6.37l-9.555 -6.37a2.999 2.999 0 0 1 2.354 -1.42l.201 -.007h14z"></path>
    </symbol>
    
    <symbol id="icon-map-pin" viewBox="0 0 24 24">
        <path stroke="none" d="M0 0h24v24H0z" ></path>
        <path fill="currentColor" d="M18.364 4.636a9 9 0 0 1 .203 12.519l-.203 .21l-4.243 4.242a3 3 0 0 1 -4.097 .135l-.144 -.135l-4.244 -4.243a9 9 0 0 1 12.728 -12.728zm-6.364 3.364a3 3 0 1 0 0 6a3 3 0 0 0 0 -6z"></path>
    </symbol>

</svg>